<svg width="30" height="26" viewBox="0 0 30 26" fill="none" xmlns="http://www.w3.org/2000/svg">
<path d="M27.6743 19.4774L27.6578 19.2934L27.7648 19.1429C28.9028 17.5429 29.5 15.698 29.5 13.7961C29.5 8.37116 24.6125 3.875 18.5 3.875C12.3876 3.875 7.50003 8.37116 7.50003 13.7961C7.50003 19.2209 12.3876 23.7171 18.5 23.7171C20.0708 23.7171 21.5845 23.4245 23.005 22.8476L23.2323 22.7553L23.4443 22.8785C25.5541 24.1042 28.3691 24.6636 29.3139 24.8251C28.8996 24.3189 28.5673 23.639 28.3087 22.8422C28.0039 21.9028 27.7899 20.7652 27.6743 19.4774Z" fill="#3369F3" stroke="white"/>
<path d="M2.48467 17.38L2.5014 17.195L2.39321 17.0439C1.15158 15.3101 0.500034 13.3109 0.500034 11.25C0.500034 5.37106 5.83282 0.5 12.5 0.5C19.1672 0.5 24.5 5.37106 24.5 11.25C24.5 17.1289 19.1672 22 12.5 22C10.7868 22 9.13539 21.683 7.58582 21.058L7.3599 20.9668L7.14889 21.0886C4.7588 22.4677 1.54125 23.0671 0.641855 23.2141C1.12 22.6656 1.50199 21.9063 1.79671 21.0044C2.12699 19.9936 2.35915 18.7683 2.48467 17.38Z" fill="#3369F3" stroke="white"/>
</svg>
