<svg width="31" height="26" viewBox="0 0 31 26" fill="none" xmlns="http://www.w3.org/2000/svg">
<path d="M28.3135 19.4775L28.2969 19.293L28.4045 19.1423C29.5462 17.5423 30.1451 15.6976 30.1451 13.7961C30.1451 8.37259 25.2425 3.875 19.108 3.875C12.9736 3.875 8.07095 8.37259 8.07095 13.7961C8.07095 19.2195 12.9736 23.7171 19.108 23.7171C20.6843 23.7171 22.2033 23.4244 23.6287 22.8474L23.8553 22.7557L24.0669 22.8782C26.1853 24.105 29.0123 24.6643 29.9583 24.8254C29.5428 24.3192 29.2095 23.6394 28.9501 22.8426C28.6442 21.9032 28.4295 20.7654 28.3135 19.4775Z" fill="#1E1E1E" stroke="white"/>
<path d="M3.0394 17.3802L3.05624 17.1946L2.94751 17.0433C1.70189 15.3095 1.04837 13.3105 1.04837 11.25C1.04837 5.37249 6.39766 0.5 13.0887 0.5C19.7797 0.5 25.129 5.37249 25.129 11.25C25.129 17.1275 19.7797 22 13.0887 22C11.3695 22 9.7124 21.6829 8.15751 21.0578L7.93221 20.9672L7.7217 21.0882C5.32179 22.4686 2.09053 23.0679 1.19081 23.2144C1.67032 22.666 2.05351 21.9067 2.34916 21.0048C2.68054 19.994 2.91348 18.7686 3.0394 17.3802Z" fill="#1E1E1E" stroke="white"/>
</svg>
