<svg width="14" height="14" viewBox="0 0 14 14" fill="none" xmlns="http://www.w3.org/2000/svg">
<g clip-path="url(#clip0_25288_112)">
<path d="M1.20702 10.6691L1.21546 10.5768L1.16163 10.5013C0.56364 9.66235 0.249988 8.69615 0.249988 7.70008C0.249988 4.84981 2.83438 2.48682 6.06665 2.48682C9.29918 2.48682 11.8836 4.84959 11.8836 7.70008C11.8836 10.5506 9.29917 12.9134 6.06689 12.9134C5.24168 12.9134 4.44634 12.7614 3.69953 12.4625L3.58726 12.4175L3.48233 12.4777C2.25641 13.1801 0.590926 13.4617 0.279628 13.5097C0.529827 13.2438 0.727107 12.8612 0.877102 12.4022C1.03501 11.9189 1.14632 11.333 1.20702 10.6691ZM0.245177 13.5452C0.245251 13.5451 0.245324 13.545 0.245398 13.545C0.245311 13.545 0.245221 13.5451 0.245132 13.5452L0.245177 13.5452Z" fill="white" stroke="black" stroke-width="0.5"/>
<path d="M6.06667 1.27013C5.82834 1.27013 5.59271 1.2811 5.36033 1.3025C6.14052 0.937222 7.02053 0.733398 7.93334 0.733398C11.0531 0.733398 13.5 3.00822 13.5 5.69666C13.5 6.3359 13.3635 6.9631 13.0981 7.54964C13.0102 4.03051 9.84487 1.27013 6.06667 1.27013ZM12.1709 10.8895C12.3845 10.5493 12.5654 10.1893 12.7092 9.81305C12.7593 10.0494 12.818 10.2711 12.8851 10.4764C12.9637 10.717 13.0566 10.9433 13.1659 11.1474C12.8882 11.0876 12.5417 11.0031 12.1709 10.8895Z" fill="#1E1E1E" stroke="#1E1E1E"/>
</g>
<defs>
<clipPath id="clip0_25288_112">
<rect width="14" height="14" fill="white"/>
</clipPath>
</defs>
</svg>
