<svg width="14" height="14" viewBox="0 0 14 14" fill="none" xmlns="http://www.w3.org/2000/svg">
<path fill-rule="evenodd" clip-rule="evenodd" d="M4 1.5H10C11.3807 1.5 12.5 2.61929 12.5 4V8.76364L9.50248 7.9643C8.68614 7.74661 7.84487 7.63636 7 7.63636C6.15513 7.63636 5.31387 7.74661 4.49752 7.9643L1.5 8.76364V4C1.5 2.61929 2.61929 1.5 4 1.5ZM0.954547 12.5934C0.359298 11.8951 0 10.9895 0 10V4C0 1.79086 1.79086 0 4 0H10C12.2091 0 14 1.79086 14 4V10C14 10.9895 13.6407 11.8951 13.0455 12.5934V12.7273H12.9261C12.8622 12.7958 12.7958 12.8622 12.7273 12.9261V13.3636H12.1656C11.5414 13.7663 10.798 14 10 14H4C3.20199 14 2.45855 13.7663 1.8344 13.3636H1.27273V12.9261C1.20416 12.8622 1.13783 12.7958 1.07389 12.7273H0.954547V12.5934ZM5.09091 3.81818C5.09091 4.52109 4.52109 5.09091 3.81818 5.09091C3.11528 5.09091 2.54546 4.52109 2.54546 3.81818C2.54546 3.11527 3.11528 2.54545 3.81818 2.54545C4.52109 2.54545 5.09091 3.11527 5.09091 3.81818Z" fill="#1E1E1E"/>
</svg>
