<svg width="14" height="14" viewBox="0 0 14 14" fill="none" xmlns="http://www.w3.org/2000/svg">
<path fill-rule="evenodd" clip-rule="evenodd" d="M12.5 7C12.5 10.0376 10.0376 12.5 7 12.5C3.96243 12.5 1.5 10.0376 1.5 7C1.5 3.96243 3.96243 1.5 7 1.5C10.0376 1.5 12.5 3.96243 12.5 7ZM14 7C14 10.866 10.866 14 7 14C3.13401 14 0 10.866 0 7C0 3.13401 3.13401 0 7 0C10.866 0 14 3.13401 14 7ZM7 8.90909C8.05436 8.90909 8.90909 8.05436 8.90909 7C8.90909 5.94564 8.05436 5.09091 7 5.09091C5.94564 5.09091 5.09091 5.94564 5.09091 7C5.09091 8.05436 5.94564 8.90909 7 8.90909Z" fill="#1E1E1E"/>
</svg>
